<svg xmlns="http://www.w3.org/2000/svg" viewBox="0 0 54 54" xml:space="preserve"><path d="M18.88.289A1.002 1.002 0 0 0 18.177 0H2a1 1 0 0 0-1 1v30a1 1 0 0 0 1 1h22a1 1 0 0 0 1-1V6.755a.999.999 0 0 0-.297-.711L18.88.289zm2.687 5.594h-2.514V3.397l2.514 2.486zM3 30V2h14.054v4.883a1 1 0 0 0 1 1H23V30H3zM52.703 28.044l-5.823-5.755a1.004 1.004 0 0 0-.703-.289H30a1 1 0 0 0-1 1v30a1 1 0 0 0 1 1h22a1 1 0 0 0 1-1V28.755a.997.997 0 0 0-.297-.711zm-3.136-.161h-2.514v-2.486l2.514 2.486zM31 52V24h14.054v4.883a1 1 0 0 0 1 1H51V52H31z"/></svg>